%TF.GenerationSoftware,KiCad,Pcbnew,9.0.7+1*%
%TF.CreationDate,Date%
%TF.ProjectId,Swasthik_KiBot_Project,53776173-7468-4696-9b5f-4b69426f745f,+ (Unreleased)*%
%TF.SameCoordinates,Original*%
%TF.FileFunction,Copper,L1,Top*%
%TF.FilePolarity,Positive*%
%FSLAX46Y46*%
G04 Gerber Fmt 4.6, Leading zero omitted, Abs format (unit mm)*
G04 Created by KiCad*
%MOMM*%
%LPD*%
G01*
G04 APERTURE LIST*
G04 Aperture macros list*
%AMRoundRect*
0 Rectangle with rounded corners*
0 $1 Rounding radius*
0 $2 $3 $4 $5 $6 $7 $8 $9 X,Y pos of 4 corners*
0 Add a 4 corners polygon primitive as box body*
4,1,4,$2,$3,$4,$5,$6,$7,$8,$9,$2,$3,0*
0 Add four circle primitives for the rounded corners*
1,1,$1+$1,$2,$3*
1,1,$1+$1,$4,$5*
1,1,$1+$1,$6,$7*
1,1,$1+$1,$8,$9*
0 Add four rect primitives between the rounded corners*
20,1,$1+$1,$2,$3,$4,$5,0*
20,1,$1+$1,$4,$5,$6,$7,0*
20,1,$1+$1,$6,$7,$8,$9,0*
20,1,$1+$1,$8,$9,$2,$3,0*%
G04 Aperture macros list end*
%TA.AperFunction,ComponentPad*%
%ADD10RoundRect,0.250000X1.050000X-1.050000X1.050000X1.050000X-1.050000X1.050000X-1.050000X-1.050000X0*%
%TD*%
%TA.AperFunction,ComponentPad*%
%ADD11C,2.600000*%
%TD*%
%TA.AperFunction,ComponentPad*%
%ADD12RoundRect,0.250000X-1.050000X1.050000X-1.050000X-1.050000X1.050000X-1.050000X1.050000X1.050000X0*%
%TD*%
%TA.AperFunction,SMDPad,CuDef*%
%ADD13RoundRect,0.225000X-0.250000X0.225000X-0.250000X-0.225000X0.250000X-0.225000X0.250000X0.225000X0*%
%TD*%
%TA.AperFunction,SMDPad,CuDef*%
%ADD14RoundRect,0.375000X0.375000X-0.625000X0.375000X0.625000X-0.375000X0.625000X-0.375000X-0.625000X0*%
%TD*%
%TA.AperFunction,SMDPad,CuDef*%
%ADD15RoundRect,0.500000X1.400000X-0.500000X1.400000X0.500000X-1.400000X0.500000X-1.400000X-0.500000X0*%
%TD*%
%TA.AperFunction,Conductor*%
%ADD16C,0.200000*%
%TD*%
G04 APERTURE END LIST*
D10*
%TO.P,J2,1,Pin_1*%
%TO.N,Net-(J2-Pin_1)*%
X221140000Y-76060000D03*
D11*
%TO.P,J2,2,Pin_2*%
%TO.N,GND*%
X221140000Y-70980000D03*
%TD*%
D12*
%TO.P,J1,1,Pin_1*%
%TO.N,GND*%
X201907500Y-70775000D03*
D11*
%TO.P,J1,2,Pin_2*%
%TO.N,Net-(J1-Pin_2)*%
X201907500Y-75855000D03*
%TD*%
D13*
%TO.P,C2,1*%
%TO.N,Net-(J2-Pin_1)*%
X211020000Y-77760000D03*
%TO.P,C2,2*%
%TO.N,GND*%
X211020000Y-79310000D03*
%TD*%
D14*
%TO.P,U1,1,GND*%
%TO.N,GND*%
X209250000Y-75570000D03*
%TO.P,U1,2,VO*%
%TO.N,Net-(J2-Pin_1)*%
X211550000Y-75570000D03*
D15*
X211550000Y-69270000D03*
D14*
%TO.P,U1,3,VI*%
%TO.N,Net-(J1-Pin_2)*%
X213850000Y-75570000D03*
%TD*%
D13*
%TO.P,C1,1*%
%TO.N,Net-(J1-Pin_2)*%
X213250000Y-77730000D03*
%TO.P,C1,2*%
%TO.N,GND*%
X213250000Y-79280000D03*
%TD*%
D16*
%TO.N,Net-(J1-Pin_2)*%
X213850000Y-77130000D02*
X213250000Y-77730000D01*
X211494110Y-78559000D02*
X210545890Y-78559000D01*
X204622500Y-78570000D02*
X201907500Y-75855000D01*
X211505110Y-78570000D02*
X211494110Y-78559000D01*
X213250000Y-77730000D02*
X212410000Y-78570000D01*
X210534890Y-78570000D02*
X204622500Y-78570000D01*
X212410000Y-78570000D02*
X211505110Y-78570000D01*
X210545890Y-78559000D02*
X210534890Y-78570000D01*
X213850000Y-75570000D02*
X213850000Y-77130000D01*
%TO.N,Net-(J2-Pin_1)*%
X214780000Y-74269000D02*
X212851000Y-74269000D01*
X211550000Y-69270000D02*
X211550000Y-71060000D01*
X211550000Y-77230000D02*
X211020000Y-77760000D01*
X211550000Y-71060000D02*
X214759000Y-74269000D01*
X214759000Y-74269000D02*
X214780000Y-74269000D01*
X216969000Y-74269000D02*
X214780000Y-74269000D01*
X218760000Y-76060000D02*
X216969000Y-74269000D01*
X212851000Y-74269000D02*
X211550000Y-75570000D01*
X211550000Y-75570000D02*
X211550000Y-77230000D01*
X221140000Y-76060000D02*
X218760000Y-76060000D01*
%TD*%
%TA.AperFunction,Conductor*%
%TO.N,GND*%
G36*
X226442539Y-66275185D02*
G01*
X226488294Y-66327989D01*
X226499500Y-66379500D01*
X226499500Y-80360500D01*
X226479815Y-80427539D01*
X226427011Y-80473294D01*
X226375500Y-80484500D01*
X211477923Y-80484500D01*
X211410884Y-80464815D01*
X211365129Y-80412011D01*
X211355185Y-80342853D01*
X211384210Y-80279297D01*
X211438919Y-80242794D01*
X211578481Y-80196547D01*
X211578492Y-80196542D01*
X211722728Y-80107575D01*
X211722732Y-80107572D01*
X211842572Y-79987732D01*
X211842575Y-79987728D01*
X211931542Y-79843492D01*
X211931547Y-79843481D01*
X211984855Y-79682606D01*
X211994999Y-79583322D01*
X211995000Y-79583309D01*
X211995000Y-79560000D01*
X210045001Y-79560000D01*
X210045001Y-79583322D01*
X210055144Y-79682607D01*
X210108452Y-79843481D01*
X210108457Y-79843492D01*
X210197424Y-79987728D01*
X210197427Y-79987732D01*
X210317267Y-80107572D01*
X210317271Y-80107575D01*
X210461507Y-80196542D01*
X210461518Y-80196547D01*
X210601081Y-80242794D01*
X210658526Y-80282567D01*
X210685349Y-80347083D01*
X210673034Y-80415858D01*
X210625491Y-80467058D01*
X210562077Y-80484500D01*
X196764500Y-80484500D01*
X196697461Y-80464815D01*
X196651706Y-80412011D01*
X196640500Y-80360500D01*
X196640500Y-79553322D01*
X212275001Y-79553322D01*
X212285144Y-79652607D01*
X212338452Y-79813481D01*
X212338457Y-79813492D01*
X212427424Y-79957728D01*
X212427427Y-79957732D01*
X212547267Y-80077572D01*
X212547271Y-80077575D01*
X212691507Y-80166542D01*
X212691518Y-80166547D01*
X212852393Y-80219855D01*
X212951683Y-80229999D01*
X213500000Y-80229999D01*
X213548308Y-80229999D01*
X213548322Y-80229998D01*
X213647607Y-80219855D01*
X213808481Y-80166547D01*
X213808492Y-80166542D01*
X213952728Y-80077575D01*
X213952732Y-80077572D01*
X214072572Y-79957732D01*
X214072575Y-79957728D01*
X214161542Y-79813492D01*
X214161547Y-79813481D01*
X214214855Y-79652606D01*
X214224999Y-79553322D01*
X214225000Y-79553309D01*
X214225000Y-79530000D01*
X213500000Y-79530000D01*
X213500000Y-80229999D01*
X212951683Y-80229999D01*
X212999999Y-80229998D01*
X213000000Y-80229998D01*
X213000000Y-79530000D01*
X212275001Y-79530000D01*
X212275001Y-79553322D01*
X196640500Y-79553322D01*
X196640500Y-75736902D01*
X200407000Y-75736902D01*
X200407000Y-75973097D01*
X200443946Y-76206368D01*
X200516933Y-76430996D01*
X200605823Y-76605450D01*
X200624157Y-76641433D01*
X200762983Y-76832510D01*
X200929990Y-76999517D01*
X201121067Y-77138343D01*
X201215533Y-77186476D01*
X201331503Y-77245566D01*
X201331505Y-77245566D01*
X201331508Y-77245568D01*
X201350627Y-77251780D01*
X201556131Y-77318553D01*
X201789403Y-77355500D01*
X201789408Y-77355500D01*
X202025597Y-77355500D01*
X202258868Y-77318553D01*
X202271320Y-77314507D01*
X202483492Y-77245568D01*
X202661318Y-77154960D01*
X202729987Y-77142065D01*
X202794728Y-77168341D01*
X202805294Y-77177765D01*
X204382040Y-78754511D01*
X204437989Y-78810460D01*
X204437991Y-78810461D01*
X204437995Y-78810464D01*
X204506504Y-78850017D01*
X204506511Y-78850021D01*
X204582938Y-78870500D01*
X204582940Y-78870500D01*
X209924664Y-78870500D01*
X209991703Y-78890185D01*
X210037458Y-78942989D01*
X210048022Y-79007102D01*
X210045000Y-79036675D01*
X210045000Y-79060000D01*
X211994999Y-79060000D01*
X211994999Y-79036692D01*
X211994998Y-79036677D01*
X211991977Y-79007102D01*
X211994779Y-78992028D01*
X211992597Y-78976853D01*
X212001035Y-78958376D01*
X212004747Y-78938409D01*
X212015252Y-78927244D01*
X212021622Y-78913297D01*
X212038707Y-78902316D01*
X212052627Y-78887524D01*
X212068380Y-78883247D01*
X212080400Y-78875523D01*
X212115335Y-78870500D01*
X212151599Y-78870500D01*
X212218638Y-78890185D01*
X212264393Y-78942989D01*
X212274363Y-79003487D01*
X212275161Y-79003528D01*
X212275000Y-79006690D01*
X212275000Y-79030000D01*
X214224999Y-79030000D01*
X214224999Y-79006692D01*
X214224998Y-79006677D01*
X214214855Y-78907392D01*
X214161547Y-78746518D01*
X214161542Y-78746507D01*
X214072575Y-78602271D01*
X214072572Y-78602267D01*
X213952732Y-78482427D01*
X213952728Y-78482424D01*
X213852159Y-78420392D01*
X213805434Y-78368444D01*
X213794213Y-78299482D01*
X213822056Y-78235400D01*
X213829565Y-78227182D01*
X213848528Y-78208220D01*
X213909719Y-78088126D01*
X213920748Y-78018493D01*
X213925500Y-77988493D01*
X213925500Y-77530833D01*
X213945185Y-77463794D01*
X213961819Y-77443152D01*
X214003097Y-77401874D01*
X214090460Y-77314511D01*
X214116411Y-77269562D01*
X214130021Y-77245989D01*
X214150500Y-77169562D01*
X214150500Y-76893993D01*
X214170185Y-76826954D01*
X214222989Y-76781199D01*
X214258850Y-76772207D01*
X214258695Y-76771030D01*
X214262720Y-76770500D01*
X214375236Y-76755687D01*
X214515233Y-76697698D01*
X214635451Y-76605451D01*
X214727698Y-76485233D01*
X214785687Y-76345236D01*
X214800500Y-76232720D01*
X214800500Y-74907280D01*
X214785687Y-74794764D01*
X214778950Y-74778500D01*
X214763398Y-74740952D01*
X214755929Y-74671482D01*
X214787205Y-74609003D01*
X214847294Y-74573352D01*
X214877959Y-74569500D01*
X216793167Y-74569500D01*
X216860206Y-74589185D01*
X216880848Y-74605819D01*
X218519540Y-76244511D01*
X218575489Y-76300460D01*
X218575491Y-76300461D01*
X218575495Y-76300464D01*
X218598636Y-76313824D01*
X218644011Y-76340021D01*
X218720438Y-76360500D01*
X219515500Y-76360500D01*
X219582539Y-76380185D01*
X219628294Y-76432989D01*
X219639500Y-76484500D01*
X219639500Y-77164269D01*
X219642353Y-77194699D01*
X219642353Y-77194701D01*
X219684278Y-77314512D01*
X219687207Y-77322882D01*
X219767850Y-77432150D01*
X219877118Y-77512793D01*
X219919845Y-77527744D01*
X220005299Y-77557646D01*
X220035730Y-77560500D01*
X220035734Y-77560500D01*
X222244270Y-77560500D01*
X222274699Y-77557646D01*
X222274701Y-77557646D01*
X222351326Y-77530833D01*
X222402882Y-77512793D01*
X222512150Y-77432150D01*
X222592793Y-77322882D01*
X222619847Y-77245566D01*
X222637646Y-77194701D01*
X222637646Y-77194699D01*
X222640500Y-77164269D01*
X222640500Y-74955730D01*
X222637646Y-74925300D01*
X222637646Y-74925298D01*
X222592793Y-74797119D01*
X222592792Y-74797117D01*
X222512150Y-74687850D01*
X222402882Y-74607207D01*
X222402880Y-74607206D01*
X222274700Y-74562353D01*
X222244270Y-74559500D01*
X222244266Y-74559500D01*
X220035734Y-74559500D01*
X220035730Y-74559500D01*
X220005300Y-74562353D01*
X220005298Y-74562353D01*
X219877119Y-74607206D01*
X219877117Y-74607207D01*
X219767850Y-74687850D01*
X219687207Y-74797117D01*
X219687206Y-74797119D01*
X219642353Y-74925298D01*
X219642353Y-74925300D01*
X219639500Y-74955730D01*
X219639500Y-75635500D01*
X219619815Y-75702539D01*
X219567011Y-75748294D01*
X219515500Y-75759500D01*
X218935833Y-75759500D01*
X218868794Y-75739815D01*
X218848152Y-75723181D01*
X217153512Y-74028541D01*
X217153504Y-74028535D01*
X217084995Y-73988982D01*
X217084990Y-73988979D01*
X217059513Y-73982152D01*
X217008562Y-73968500D01*
X217008560Y-73968500D01*
X214934833Y-73968500D01*
X214867794Y-73948815D01*
X214847152Y-73932181D01*
X211886819Y-70971848D01*
X211872115Y-70944920D01*
X211855523Y-70919102D01*
X211854631Y-70912901D01*
X211853334Y-70910525D01*
X211850500Y-70884167D01*
X211850500Y-70862014D01*
X219340000Y-70862014D01*
X219340000Y-71097985D01*
X219370799Y-71331914D01*
X219431870Y-71559837D01*
X219522160Y-71777819D01*
X219522165Y-71777828D01*
X219640144Y-71982171D01*
X219640145Y-71982172D01*
X219702721Y-72063723D01*
X220538958Y-71227487D01*
X220563978Y-71287890D01*
X220635112Y-71394351D01*
X220725649Y-71484888D01*
X220832110Y-71556022D01*
X220892511Y-71581041D01*
X220056275Y-72417277D01*
X220137827Y-72479854D01*
X220137828Y-72479855D01*
X220342171Y-72597834D01*
X220342180Y-72597839D01*
X220560163Y-72688129D01*
X220560161Y-72688129D01*
X220788085Y-72749200D01*
X221022014Y-72779999D01*
X221022029Y-72780000D01*
X221257971Y-72780000D01*
X221257985Y-72779999D01*
X221491914Y-72749200D01*
X221719837Y-72688129D01*
X221937819Y-72597839D01*
X221937828Y-72597834D01*
X222142181Y-72479850D01*
X222223723Y-72417279D01*
X222223723Y-72417276D01*
X221387487Y-71581041D01*
X221447890Y-71556022D01*
X221554351Y-71484888D01*
X221644888Y-71394351D01*
X221716022Y-71287890D01*
X221741041Y-71227488D01*
X222577276Y-72063723D01*
X222577279Y-72063723D01*
X222639850Y-71982181D01*
X222757834Y-71777828D01*
X222757839Y-71777819D01*
X222848129Y-71559837D01*
X222909200Y-71331914D01*
X222939999Y-71097985D01*
X222940000Y-71097971D01*
X222940000Y-70862028D01*
X222939999Y-70862014D01*
X222909200Y-70628085D01*
X222848129Y-70400162D01*
X222757839Y-70182180D01*
X222757834Y-70182171D01*
X222639855Y-69977828D01*
X222639854Y-69977827D01*
X222577277Y-69896275D01*
X221741041Y-70732511D01*
X221716022Y-70672110D01*
X221644888Y-70565649D01*
X221554351Y-70475112D01*
X221447890Y-70403978D01*
X221387488Y-70378958D01*
X222223723Y-69542721D01*
X222142172Y-69480145D01*
X222142171Y-69480144D01*
X221937828Y-69362165D01*
X221937819Y-69362160D01*
X221719836Y-69271870D01*
X221719838Y-69271870D01*
X221491914Y-69210799D01*
X221257985Y-69180000D01*
X221022014Y-69180000D01*
X220788085Y-69210799D01*
X220560162Y-69271870D01*
X220342180Y-69362160D01*
X220342171Y-69362165D01*
X220137828Y-69480144D01*
X220137818Y-69480150D01*
X220056275Y-69542720D01*
X220056275Y-69542721D01*
X220892512Y-70378958D01*
X220832110Y-70403978D01*
X220725649Y-70475112D01*
X220635112Y-70565649D01*
X220563978Y-70672110D01*
X220538958Y-70732512D01*
X219702721Y-69896275D01*
X219702720Y-69896275D01*
X219640150Y-69977818D01*
X219640144Y-69977828D01*
X219522165Y-70182171D01*
X219522160Y-70182180D01*
X219431870Y-70400162D01*
X219370799Y-70628085D01*
X219340000Y-70862014D01*
X211850500Y-70862014D01*
X211850500Y-70594500D01*
X211870185Y-70527461D01*
X211922989Y-70481706D01*
X211974500Y-70470500D01*
X213006613Y-70470500D01*
X213006616Y-70470500D01*
X213077196Y-70464086D01*
X213239606Y-70413478D01*
X213385185Y-70325472D01*
X213505472Y-70205185D01*
X213593478Y-70059606D01*
X213644086Y-69897196D01*
X213650500Y-69826616D01*
X213650500Y-68713384D01*
X213644086Y-68642804D01*
X213593478Y-68480394D01*
X213505472Y-68334815D01*
X213505470Y-68334813D01*
X213505469Y-68334811D01*
X213385188Y-68214530D01*
X213239606Y-68126522D01*
X213077196Y-68075914D01*
X213077194Y-68075913D01*
X213077192Y-68075913D01*
X213027778Y-68071423D01*
X213006616Y-68069500D01*
X210093384Y-68069500D01*
X210074145Y-68071248D01*
X210022807Y-68075913D01*
X209860393Y-68126522D01*
X209714811Y-68214530D01*
X209594530Y-68334811D01*
X209506522Y-68480393D01*
X209455913Y-68642807D01*
X209449500Y-68713386D01*
X209449500Y-69826613D01*
X209455913Y-69897192D01*
X209455913Y-69897194D01*
X209455914Y-69897196D01*
X209506522Y-70059606D01*
X209580615Y-70182171D01*
X209594530Y-70205188D01*
X209714811Y-70325469D01*
X209714813Y-70325470D01*
X209714815Y-70325472D01*
X209860394Y-70413478D01*
X210022804Y-70464086D01*
X210093384Y-70470500D01*
X211125500Y-70470500D01*
X211192539Y-70490185D01*
X211238294Y-70542989D01*
X211249500Y-70594500D01*
X211249500Y-71099562D01*
X211263152Y-71150513D01*
X211269979Y-71175990D01*
X211269982Y-71175995D01*
X211309535Y-71244504D01*
X211309541Y-71244512D01*
X213821848Y-73756819D01*
X213855333Y-73818142D01*
X213850349Y-73887834D01*
X213808477Y-73943767D01*
X213743013Y-73968184D01*
X213734167Y-73968500D01*
X212811438Y-73968500D01*
X212773224Y-73978739D01*
X212735009Y-73988979D01*
X212735004Y-73988982D01*
X212666495Y-74028535D01*
X212666487Y-74028541D01*
X212300331Y-74394696D01*
X212239008Y-74428181D01*
X212169316Y-74423197D01*
X212165198Y-74421576D01*
X212075239Y-74384314D01*
X212075237Y-74384313D01*
X212075236Y-74384313D01*
X212061171Y-74382461D01*
X211962727Y-74369500D01*
X211962720Y-74369500D01*
X211137280Y-74369500D01*
X211137272Y-74369500D01*
X211024764Y-74384313D01*
X211024763Y-74384313D01*
X210884770Y-74442300D01*
X210884767Y-74442301D01*
X210884767Y-74442302D01*
X210764549Y-74534549D01*
X210672302Y-74654767D01*
X210672301Y-74654769D01*
X210667355Y-74661215D01*
X210666226Y-74660349D01*
X210621999Y-74702513D01*
X210553391Y-74715731D01*
X210488529Y-74689757D01*
X210454100Y-74647387D01*
X210366609Y-74470977D01*
X210366607Y-74470974D01*
X210247367Y-74322633D01*
X210247366Y-74322632D01*
X210099025Y-74203392D01*
X210099022Y-74203390D01*
X209928523Y-74118831D01*
X209743824Y-74072897D01*
X209701097Y-74070000D01*
X209500000Y-74070000D01*
X209500000Y-77070000D01*
X209701097Y-77070000D01*
X209743824Y-77067102D01*
X209928523Y-77021168D01*
X210099022Y-76936609D01*
X210099025Y-76936607D01*
X210247366Y-76817367D01*
X210247367Y-76817366D01*
X210366607Y-76669025D01*
X210366609Y-76669022D01*
X210454100Y-76492612D01*
X210501521Y-76441299D01*
X210569156Y-76423769D01*
X210635531Y-76445589D01*
X210666669Y-76479310D01*
X210667355Y-76478785D01*
X210672300Y-76485229D01*
X210672302Y-76485233D01*
X210764549Y-76605451D01*
X210884767Y-76697698D01*
X211024764Y-76755687D01*
X211137280Y-76770500D01*
X211141305Y-76771030D01*
X211141239Y-76771529D01*
X211143147Y-76771255D01*
X211170601Y-76783793D01*
X211198965Y-76794099D01*
X211202058Y-76798158D01*
X211206703Y-76800280D01*
X211223020Y-76825671D01*
X211241310Y-76849675D01*
X211242465Y-76855928D01*
X211244477Y-76859058D01*
X211249500Y-76893993D01*
X211249500Y-76985500D01*
X211229815Y-77052539D01*
X211177011Y-77098294D01*
X211125500Y-77109500D01*
X210736507Y-77109500D01*
X210636878Y-77125279D01*
X210516778Y-77186473D01*
X210516774Y-77186476D01*
X210421476Y-77281774D01*
X210421473Y-77281778D01*
X210360279Y-77401878D01*
X210344500Y-77501506D01*
X210344500Y-78018493D01*
X210361544Y-78126102D01*
X210352590Y-78195395D01*
X210307594Y-78248847D01*
X210240842Y-78269487D01*
X210239071Y-78269500D01*
X204798333Y-78269500D01*
X204731294Y-78249815D01*
X204710652Y-78233181D01*
X203230265Y-76752794D01*
X203196780Y-76691471D01*
X203201764Y-76621779D01*
X203207461Y-76608818D01*
X203298066Y-76430996D01*
X203298066Y-76430995D01*
X203298068Y-76430992D01*
X203350022Y-76271096D01*
X208000000Y-76271096D01*
X208002897Y-76313824D01*
X208048831Y-76498523D01*
X208133390Y-76669022D01*
X208133392Y-76669025D01*
X208252632Y-76817366D01*
X208252633Y-76817367D01*
X208400974Y-76936607D01*
X208400977Y-76936609D01*
X208571476Y-77021168D01*
X208756175Y-77067102D01*
X208798903Y-77070000D01*
X209000000Y-77070000D01*
X209000000Y-75820000D01*
X208000000Y-75820000D01*
X208000000Y-76271096D01*
X203350022Y-76271096D01*
X203371053Y-76206368D01*
X203408000Y-75973097D01*
X203408000Y-75736902D01*
X203371053Y-75503631D01*
X203298066Y-75279003D01*
X203241502Y-75167991D01*
X203190843Y-75068567D01*
X203052017Y-74877490D01*
X203043430Y-74868903D01*
X208000000Y-74868903D01*
X208000000Y-75320000D01*
X209000000Y-75320000D01*
X209000000Y-74070000D01*
X208798903Y-74070000D01*
X208756175Y-74072897D01*
X208571476Y-74118831D01*
X208400977Y-74203390D01*
X208400974Y-74203392D01*
X208252633Y-74322632D01*
X208252632Y-74322633D01*
X208133392Y-74470974D01*
X208133390Y-74470977D01*
X208048831Y-74641476D01*
X208002897Y-74826175D01*
X208000000Y-74868903D01*
X203043430Y-74868903D01*
X202885010Y-74710483D01*
X202693933Y-74571657D01*
X202670074Y-74559500D01*
X202483496Y-74464433D01*
X202258868Y-74391446D01*
X202025597Y-74354500D01*
X202025592Y-74354500D01*
X201789408Y-74354500D01*
X201789403Y-74354500D01*
X201556131Y-74391446D01*
X201331503Y-74464433D01*
X201121066Y-74571657D01*
X201024970Y-74641476D01*
X200929990Y-74710483D01*
X200929988Y-74710485D01*
X200929987Y-74710485D01*
X200762985Y-74877487D01*
X200762985Y-74877488D01*
X200762983Y-74877490D01*
X200728247Y-74925300D01*
X200624157Y-75068566D01*
X200516933Y-75279003D01*
X200443946Y-75503631D01*
X200407000Y-75736902D01*
X196640500Y-75736902D01*
X196640500Y-69675013D01*
X200107500Y-69675013D01*
X200107500Y-70525000D01*
X201307499Y-70525000D01*
X201282479Y-70585402D01*
X201257500Y-70710981D01*
X201257500Y-70839019D01*
X201282479Y-70964598D01*
X201307499Y-71025000D01*
X200107501Y-71025000D01*
X200107501Y-71874986D01*
X200117994Y-71977697D01*
X200173141Y-72144119D01*
X200173143Y-72144124D01*
X200265184Y-72293345D01*
X200389154Y-72417315D01*
X200538375Y-72509356D01*
X200538380Y-72509358D01*
X200704802Y-72564505D01*
X200704809Y-72564506D01*
X200807519Y-72574999D01*
X201657499Y-72574999D01*
X201657500Y-72574998D01*
X201657500Y-71375001D01*
X201717902Y-71400021D01*
X201843481Y-71425000D01*
X201971519Y-71425000D01*
X202097098Y-71400021D01*
X202157500Y-71375001D01*
X202157500Y-72574999D01*
X203007472Y-72574999D01*
X203007486Y-72574998D01*
X203110197Y-72564505D01*
X203276619Y-72509358D01*
X203276624Y-72509356D01*
X203425845Y-72417315D01*
X203549815Y-72293345D01*
X203641856Y-72144124D01*
X203641858Y-72144119D01*
X203697005Y-71977697D01*
X203697006Y-71977690D01*
X203707499Y-71874986D01*
X203707500Y-71874973D01*
X203707500Y-71025000D01*
X202507501Y-71025000D01*
X202532521Y-70964598D01*
X202557500Y-70839019D01*
X202557500Y-70710981D01*
X202532521Y-70585402D01*
X202507501Y-70525000D01*
X203707499Y-70525000D01*
X203707499Y-69675028D01*
X203707498Y-69675013D01*
X203697005Y-69572302D01*
X203641858Y-69405880D01*
X203641856Y-69405875D01*
X203549815Y-69256654D01*
X203425845Y-69132684D01*
X203276624Y-69040643D01*
X203276619Y-69040641D01*
X203110197Y-68985494D01*
X203110190Y-68985493D01*
X203007486Y-68975000D01*
X202157500Y-68975000D01*
X202157500Y-70174998D01*
X202097098Y-70149979D01*
X201971519Y-70125000D01*
X201843481Y-70125000D01*
X201717902Y-70149979D01*
X201657500Y-70174998D01*
X201657500Y-68975000D01*
X200807528Y-68975000D01*
X200807512Y-68975001D01*
X200704802Y-68985494D01*
X200538380Y-69040641D01*
X200538375Y-69040643D01*
X200389154Y-69132684D01*
X200265184Y-69256654D01*
X200173143Y-69405875D01*
X200173141Y-69405880D01*
X200117994Y-69572302D01*
X200117993Y-69572309D01*
X200107500Y-69675013D01*
X196640500Y-69675013D01*
X196640500Y-66379500D01*
X196660185Y-66312461D01*
X196712989Y-66266706D01*
X196764500Y-66255500D01*
X226375500Y-66255500D01*
X226442539Y-66275185D01*
G37*
%TD.AperFunction*%
%TD*%
M02*
