%TF.GenerationSoftware,KiCad,Pcbnew,9.0.7+1*%
%TF.CreationDate,Date%
%TF.ProjectId,Swasthik_KiBot_Project,53776173-7468-4696-9b5f-4b69426f745f,+ (Unreleased)*%
%TF.SameCoordinates,Original*%
%TF.FileFunction,Paste,Top*%
%TF.FilePolarity,Positive*%
%FSLAX46Y46*%
G04 Gerber Fmt 4.6, Leading zero omitted, Abs format (unit mm)*
G04 Created by KiCad*
%MOMM*%
%LPD*%
G01*
G04 APERTURE LIST*
G04 Aperture macros list*
%AMRoundRect*
0 Rectangle with rounded corners*
0 $1 Rounding radius*
0 $2 $3 $4 $5 $6 $7 $8 $9 X,Y pos of 4 corners*
0 Add a 4 corners polygon primitive as box body*
4,1,4,$2,$3,$4,$5,$6,$7,$8,$9,$2,$3,0*
0 Add four circle primitives for the rounded corners*
1,1,$1+$1,$2,$3*
1,1,$1+$1,$4,$5*
1,1,$1+$1,$6,$7*
1,1,$1+$1,$8,$9*
0 Add four rect primitives between the rounded corners*
20,1,$1+$1,$2,$3,$4,$5,0*
20,1,$1+$1,$4,$5,$6,$7,0*
20,1,$1+$1,$6,$7,$8,$9,0*
20,1,$1+$1,$8,$9,$2,$3,0*%
G04 Aperture macros list end*
%ADD10RoundRect,0.140000X0.170000X-0.140000X0.170000X0.140000X-0.170000X0.140000X-0.170000X-0.140000X0*%
%ADD11RoundRect,0.135000X-0.226274X-0.035355X-0.035355X-0.226274X0.226274X0.035355X0.035355X0.226274X0*%
%ADD12RoundRect,0.140000X-0.170000X0.140000X-0.170000X-0.140000X0.170000X-0.140000X0.170000X0.140000X0*%
%ADD13RoundRect,0.135000X0.226274X0.035355X0.035355X0.226274X-0.226274X-0.035355X-0.035355X-0.226274X0*%
%ADD14RoundRect,0.112500X0.112500X-0.187500X0.112500X0.187500X-0.112500X0.187500X-0.112500X-0.187500X0*%
%ADD15RoundRect,0.140000X-0.140000X-0.170000X0.140000X-0.170000X0.140000X0.170000X-0.140000X0.170000X0*%
%ADD16RoundRect,0.135000X-0.185000X0.135000X-0.185000X-0.135000X0.185000X-0.135000X0.185000X0.135000X0*%
%ADD17RoundRect,0.250000X0.275000X-0.295000X0.275000X0.295000X-0.275000X0.295000X-0.275000X-0.295000X0*%
%ADD18RoundRect,0.062500X0.062500X-0.337500X0.062500X0.337500X-0.062500X0.337500X-0.062500X-0.337500X0*%
%ADD19RoundRect,0.062500X0.337500X-0.062500X0.337500X0.062500X-0.337500X0.062500X-0.337500X-0.062500X0*%
%ADD20R,3.150000X1.000000*%
%ADD21R,0.700000X1.600000*%
%ADD22R,1.200000X1.800000*%
%ADD23R,1.200000X2.200000*%
%ADD24R,1.600000X1.500000*%
%ADD25RoundRect,0.150000X0.150000X-0.512500X0.150000X0.512500X-0.150000X0.512500X-0.150000X-0.512500X0*%
%ADD26RoundRect,0.140000X0.021213X-0.219203X0.219203X-0.021213X-0.021213X0.219203X-0.219203X0.021213X0*%
%ADD27RoundRect,0.135000X-0.135000X-0.185000X0.135000X-0.185000X0.135000X0.185000X-0.135000X0.185000X0*%
%ADD28RoundRect,0.250000X0.750000X-2.000000X0.750000X2.000000X-0.750000X2.000000X-0.750000X-2.000000X0*%
%ADD29RoundRect,0.140000X0.140000X0.170000X-0.140000X0.170000X-0.140000X-0.170000X0.140000X-0.170000X0*%
%ADD30RoundRect,0.140000X-0.219203X-0.021213X-0.021213X-0.219203X0.219203X0.021213X0.021213X0.219203X0*%
%ADD31RoundRect,0.140000X-0.021213X0.219203X-0.219203X0.021213X0.021213X-0.219203X0.219203X-0.021213X0*%
%ADD32R,0.400000X1.300000*%
%ADD33R,1.500000X1.200000*%
%ADD34R,1.000000X1.000000*%
%ADD35RoundRect,0.225000X0.225000X0.375000X-0.225000X0.375000X-0.225000X-0.375000X0.225000X-0.375000X0*%
%ADD36RoundRect,0.135000X0.035355X-0.226274X0.226274X-0.035355X-0.035355X0.226274X-0.226274X0.035355X0*%
%ADD37RoundRect,0.075000X-0.662500X-0.075000X0.662500X-0.075000X0.662500X0.075000X-0.662500X0.075000X0*%
%ADD38RoundRect,0.075000X-0.075000X-0.662500X0.075000X-0.662500X0.075000X0.662500X-0.075000X0.662500X0*%
%ADD39RoundRect,0.218750X-0.256250X0.218750X-0.256250X-0.218750X0.256250X-0.218750X0.256250X0.218750X0*%
%ADD40R,1.000000X3.150000*%
G04 APERTURE END LIST*
D10*
%TO.C,C6*%
X90820000Y-69950000D03*
X90820000Y-68990000D03*
%TD*%
D11*
%TO.C,R8*%
X87743376Y-80342712D03*
X88464624Y-81063960D03*
%TD*%
D12*
%TO.C,C2*%
X107304000Y-73998336D03*
X107304000Y-74958336D03*
%TD*%
D13*
%TO.C,R13*%
X113938435Y-81414841D03*
X113217187Y-80693593D03*
%TD*%
D14*
%TO.C,D7*%
X94819000Y-47438336D03*
X94819000Y-45338336D03*
%TD*%
D15*
%TO.C,C4*%
X98099000Y-71453336D03*
X99059000Y-71453336D03*
%TD*%
D16*
%TO.C,R7*%
X106454000Y-51018336D03*
X106454000Y-52038336D03*
%TD*%
D12*
%TO.C,C5*%
X90840000Y-66860000D03*
X90840000Y-67820000D03*
%TD*%
D16*
%TO.C,R21*%
X164771446Y-72150836D03*
X164771446Y-73170836D03*
%TD*%
D17*
%TO.C,U8*%
X100396980Y-67565000D03*
X101696980Y-67565000D03*
X100396980Y-66215000D03*
X101696980Y-66215000D03*
D18*
X99796980Y-68865000D03*
X100296980Y-68865000D03*
X100796980Y-68865000D03*
X101296980Y-68865000D03*
X101796980Y-68865000D03*
X102296980Y-68865000D03*
D19*
X103021980Y-68140000D03*
X103021980Y-67640000D03*
X103021980Y-67140000D03*
X103021980Y-66640000D03*
X103021980Y-66140000D03*
X103021980Y-65640000D03*
D18*
X102296980Y-64915000D03*
X101796980Y-64915000D03*
X101296980Y-64915000D03*
X100796980Y-64915000D03*
X100296980Y-64915000D03*
X99796980Y-64915000D03*
D19*
X99071980Y-65640000D03*
X99071980Y-66140000D03*
X99071980Y-66640000D03*
X99071980Y-67140000D03*
X99071980Y-67640000D03*
X99071980Y-68140000D03*
%TD*%
D20*
%TO.C,J5*%
X147406446Y-58110836D03*
X152456446Y-58110836D03*
X147406446Y-60650836D03*
X152456446Y-60650836D03*
X147406446Y-63190836D03*
X152456446Y-63190836D03*
X147406446Y-65730836D03*
X152456446Y-65730836D03*
X147406446Y-68270836D03*
X152456446Y-68270836D03*
%TD*%
D16*
%TO.C,R6*%
X104204000Y-51043336D03*
X104204000Y-52063336D03*
%TD*%
D21*
%TO.C,J6*%
X165831446Y-75480836D03*
X164731446Y-75480836D03*
X163631446Y-75480836D03*
X162531446Y-75480836D03*
X161431446Y-75480836D03*
X160331446Y-75480836D03*
X159231446Y-75480836D03*
X158131446Y-75480836D03*
X157031446Y-75480836D03*
D22*
X155831446Y-76780836D03*
D23*
X155831446Y-86080836D03*
D24*
X170431446Y-76530836D03*
D23*
X171331446Y-86080836D03*
%TD*%
D25*
%TO.C,U4*%
X100069000Y-48785836D03*
X101019000Y-48785836D03*
X101969000Y-48785836D03*
X101969000Y-46510836D03*
X101019000Y-46510836D03*
X100069000Y-46510836D03*
%TD*%
D26*
%TO.C,C21*%
X111300927Y-80898653D03*
X111979749Y-80219831D03*
%TD*%
D16*
%TO.C,R20*%
X163641446Y-72150836D03*
X163641446Y-73170836D03*
%TD*%
D14*
%TO.C,D6*%
X97309000Y-47428336D03*
X97309000Y-45328336D03*
%TD*%
D11*
%TO.C,R3*%
X87868376Y-78417712D03*
X88589624Y-79138960D03*
%TD*%
D27*
%TO.C,R24*%
X104739000Y-47088336D03*
X105759000Y-47088336D03*
%TD*%
D10*
%TO.C,C19*%
X97620000Y-66140000D03*
X97620000Y-65180000D03*
%TD*%
D16*
%TO.C,R23*%
X158021446Y-72200836D03*
X158021446Y-73220836D03*
%TD*%
D28*
%TO.C,Y1*%
X86860000Y-72580000D03*
X86860000Y-64080000D03*
%TD*%
D16*
%TO.C,R17*%
X159341446Y-72210836D03*
X159341446Y-73230836D03*
%TD*%
D13*
%TO.C,R12*%
X112531292Y-82821984D03*
X111810044Y-82100736D03*
%TD*%
D10*
%TO.C,C18*%
X104529000Y-68333336D03*
X104529000Y-67373336D03*
%TD*%
D29*
%TO.C,C1*%
X104420000Y-83080000D03*
X103460000Y-83080000D03*
%TD*%
D30*
%TO.C,C15*%
X89364589Y-79888925D03*
X90043411Y-80567747D03*
%TD*%
D16*
%TO.C,R22*%
X165931446Y-72160836D03*
X165931446Y-73180836D03*
%TD*%
D31*
%TO.C,C10*%
X117120000Y-54990000D03*
X116441178Y-55668822D03*
%TD*%
D20*
%TO.C,J3*%
X179921446Y-68240836D03*
X174871446Y-68240836D03*
X179921446Y-65700836D03*
X174871446Y-65700836D03*
X179921446Y-63160836D03*
X174871446Y-63160836D03*
X179921446Y-60620836D03*
X174871446Y-60620836D03*
X179921446Y-58080836D03*
X174871446Y-58080836D03*
%TD*%
D32*
%TO.C,J2*%
X102399000Y-41218336D03*
X101749000Y-41218336D03*
X101099000Y-41218336D03*
X100449000Y-41218336D03*
X99799000Y-41218336D03*
D33*
X104549000Y-38468336D03*
D34*
X104249000Y-40918336D03*
X97949000Y-40918336D03*
D33*
X97649000Y-38468336D03*
%TD*%
D10*
%TO.C,C17*%
X95579000Y-78678336D03*
X95579000Y-77718336D03*
%TD*%
D35*
%TO.C,D5*%
X169371446Y-66920836D03*
X166071446Y-66920836D03*
%TD*%
D27*
%TO.C,R11*%
X96830000Y-68560000D03*
X97850000Y-68560000D03*
%TD*%
D10*
%TO.C,C20*%
X104504000Y-66208336D03*
X104504000Y-65248336D03*
%TD*%
%TO.C,C3*%
X95604000Y-74183336D03*
X95604000Y-73223336D03*
%TD*%
D16*
%TO.C,R5*%
X105329000Y-51043336D03*
X105329000Y-52063336D03*
%TD*%
D27*
%TO.C,R10*%
X96820000Y-67520000D03*
X97840000Y-67520000D03*
%TD*%
D36*
%TO.C,R4*%
X115478752Y-54691248D03*
X116200000Y-53970000D03*
%TD*%
D16*
%TO.C,R18*%
X161381446Y-72170836D03*
X161381446Y-73190836D03*
%TD*%
D37*
%TO.C,U1*%
X97357500Y-74400000D03*
X97357500Y-74900000D03*
X97357500Y-75400000D03*
X97357500Y-75900000D03*
X97357500Y-76400000D03*
X97357500Y-76900000D03*
X97357500Y-77400000D03*
X97357500Y-77900000D03*
X97357500Y-78400000D03*
X97357500Y-78900000D03*
X97357500Y-79400000D03*
X97357500Y-79900000D03*
D38*
X98770000Y-81312500D03*
X99270000Y-81312500D03*
X99770000Y-81312500D03*
X100270000Y-81312500D03*
X100770000Y-81312500D03*
X101270000Y-81312500D03*
X101770000Y-81312500D03*
X102270000Y-81312500D03*
X102770000Y-81312500D03*
X103270000Y-81312500D03*
X103770000Y-81312500D03*
X104270000Y-81312500D03*
D37*
X105682500Y-79900000D03*
X105682500Y-79400000D03*
X105682500Y-78900000D03*
X105682500Y-78400000D03*
X105682500Y-77900000D03*
X105682500Y-77400000D03*
X105682500Y-76900000D03*
X105682500Y-76400000D03*
X105682500Y-75900000D03*
X105682500Y-75400000D03*
X105682500Y-74900000D03*
X105682500Y-74400000D03*
D38*
X104270000Y-72987500D03*
X103770000Y-72987500D03*
X103270000Y-72987500D03*
X102770000Y-72987500D03*
X102270000Y-72987500D03*
X101770000Y-72987500D03*
X101270000Y-72987500D03*
X100770000Y-72987500D03*
X100270000Y-72987500D03*
X99770000Y-72987500D03*
X99270000Y-72987500D03*
X98770000Y-72987500D03*
%TD*%
D39*
%TO.C,D8*%
X107339000Y-45610836D03*
X107339000Y-47185836D03*
%TD*%
D10*
%TO.C,C9*%
X94479000Y-78678336D03*
X94479000Y-77718336D03*
%TD*%
D40*
%TO.C,J4*%
X168751446Y-46895836D03*
X168751446Y-51945836D03*
X166211446Y-46895836D03*
X166211446Y-51945836D03*
X163671446Y-46895836D03*
X163671446Y-51945836D03*
X161131446Y-46895836D03*
X161131446Y-51945836D03*
X158591446Y-46895836D03*
X158591446Y-51945836D03*
%TD*%
M02*
