M48
; DRILL file {KiCad 9.0.7+1} date 2026-04-13T11:42:54+0000
; FORMAT={-:-/ absolute / metric / decimal}
; #@! TF.CreationDate,2026-04-13T11:42:54+00:00
; #@! TF.GenerationSoftware,Kicad,Pcbnew,9.0.7+1
; #@! TF.FileFunction,Plated,1,2,PTH
FMAT,2
METRIC
; #@! TA.AperFunction,Plated,PTH,ViaDrill
T1C0.250
; #@! TA.AperFunction,Plated,PTH,ViaDrill
T2C0.300
; #@! TA.AperFunction,Plated,PTH,ViaDrill
T3C0.400
%
G90
G05
T1
X99.541Y-76.58
X100.041Y-83.523
X100.55Y-80.092
X104.484Y-78.156
X104.619Y-78.947
X109.4Y-77.05
T2
X80.669Y-63.278
X81.939Y-60.738
X81.939Y-67.088
X81.939Y-69.628
X81.939Y-72.168
X83.209Y-75.978
X83.209Y-78.518
X84.479Y-73.438
X84.479Y-74.708
X84.479Y-79.788
X85.879Y-56.778
X86.504Y-78.328
X87.019Y-51.848
X87.019Y-67.088
X87.019Y-68.358
X87.019Y-82.328
X87.429Y-79.808
X89.509Y-52.118
X89.559Y-73.438
X89.559Y-74.708
X89.559Y-84.868
X89.679Y-81.868
X91.139Y-81.638
X91.304Y-54.628
X91.729Y-79.828
X91.799Y-60.428
X92.46Y-80.461
X93.24Y-82.62
X93.369Y-68.358
X93.369Y-69.628
X93.369Y-70.898
X94.593Y-73.964
X94.62Y-87.22
X94.639Y-39.148
X94.639Y-40.418
X94.639Y-41.688
X94.639Y-42.958
X94.704Y-79.611
X94.805Y-82.035
X94.854Y-76.403
X95.139Y-70.198
X95.289Y-72.388
X95.479Y-80.135
X95.539Y-57.928
X95.689Y-55.148
X95.909Y-50.578
X96.164Y-85.07
X96.359Y-70.206
X97.179Y-50.578
X97.179Y-55.658
X97.179Y-58.198
X97.179Y-60.738
X97.319Y-44.598
X97.319Y-48.4
X97.672Y-67.108
X97.779Y-64.228
X97.829Y-85.211
X98.449Y-50.578
X98.449Y-87.408
X98.917Y-68.823
X99.64Y-84.2
X99.719Y-53.118
X99.719Y-55.658
X99.719Y-58.198
X99.719Y-60.738
X99.88Y-79.59
X100.054Y-49.928
X100.129Y-70.439
X100.239Y-75.078
X100.482Y-66.325
X100.759Y-39.878
X100.919Y-67.018
X100.929Y-45.258
X101.289Y-50.496
X101.797Y-66.14
X101.889Y-70.639
X102.054Y-85.353
X102.17Y-78.89
X102.227Y-84.288
X102.229Y-51.228
X102.234Y-78.083
X102.309Y-64.018
X102.344Y-44.104
X102.386Y-71.268
X103.146Y-70.755
X103.504Y-57.078
X103.709Y-63.858
X103.759Y-60.428
X103.869Y-47.078
X104.085Y-55.778
X104.396Y-71.291
X104.6Y-76.87
X104.654Y-50.128
X104.799Y-87.408
X105.132Y-68.103
X105.496Y-59.653
X105.599Y-49.068
X106.064Y-61.81
X106.069Y-55.658
X106.069Y-56.928
X106.069Y-58.198
X106.479Y-50.253
X107.28Y-87.28
X107.289Y-68.148
X107.339Y-39.148
X107.339Y-40.418
X107.339Y-41.688
X107.339Y-42.958
X107.429Y-73.378
X107.99Y-76.858
X108.649Y-80.148
X108.688Y-77.358
X109.879Y-86.138
X110.056Y-65.248
X110.479Y-83.553
X111.149Y-50.578
X111.149Y-53.118
X111.149Y-55.658
X111.149Y-59.468
X112.379Y-66.148
X112.669Y-72.678
X113.689Y-83.598
X114.959Y-59.468
X114.959Y-62.008
X114.959Y-64.548
X114.959Y-68.358
X115.029Y-55.778
X115.904Y-73.378
X116.229Y-81.058
X117.499Y-59.468
X117.499Y-70.898
X117.499Y-77.248
X119.76Y-77.08
X120.039Y-70.898
X120.039Y-74.708
X144.871Y-50.921
X144.871Y-58.541
X144.871Y-63.621
X147.541Y-57.211
X149.951Y-45.841
X149.951Y-50.921
X149.951Y-68.701
X149.951Y-73.781
X150.188Y-55.317
X150.693Y-53.76
X151.321Y-54.363
X151.583Y-55.856
X155.031Y-45.841
X155.031Y-50.921
X155.031Y-58.541
X155.031Y-63.621
X155.031Y-68.701
X155.031Y-73.781
X155.031Y-78.861
X158.731Y-72.211
X159.251Y-64.511
X160.111Y-40.761
X160.111Y-78.861
X160.111Y-89.021
X160.971Y-71.451
X162.651Y-66.161
X162.751Y-62.091
X162.827Y-60.996
X163.064Y-71.478
X163.682Y-59.983
X164.001Y-61.021
X164.681Y-59.441
X165.191Y-63.621
X165.191Y-78.861
X165.191Y-89.021
X165.381Y-71.511
X165.421Y-57.931
X167.731Y-40.761
X169.371Y-65.651
X170.271Y-56.001
X170.271Y-63.621
X170.271Y-73.781
X170.271Y-78.861
X170.271Y-89.021
X172.811Y-45.841
X172.811Y-50.921
X175.351Y-53.461
X175.351Y-56.001
X175.351Y-73.781
X175.351Y-78.861
X177.891Y-45.841
X177.891Y-50.921
X180.431Y-73.781
X182.971Y-56.001
X182.971Y-61.081
X182.971Y-66.161
T3
X92.289Y-50.178
X115.654Y-79.678
X115.804Y-52.853
M30
