%TF.GenerationSoftware,KiCad,Pcbnew,9.0.7+1*%
%TF.CreationDate,Date%
%TF.ProjectId,Swasthik_KiBot_Project,53776173-7468-4696-9b5f-4b69426f745f,+ (Unreleased)*%
%TF.SameCoordinates,Original*%
%TF.FileFunction,Copper,L2,Bot*%
%TF.FilePolarity,Positive*%
%FSLAX46Y46*%
G04 Gerber Fmt 4.6, Leading zero omitted, Abs format (unit mm)*
G04 Created by KiCad*
%MOMM*%
%LPD*%
G01*
G04 APERTURE LIST*
G04 Aperture macros list*
%AMRoundRect*
0 Rectangle with rounded corners*
0 $1 Rounding radius*
0 $2 $3 $4 $5 $6 $7 $8 $9 X,Y pos of 4 corners*
0 Add a 4 corners polygon primitive as box body*
4,1,4,$2,$3,$4,$5,$6,$7,$8,$9,$2,$3,0*
0 Add four circle primitives for the rounded corners*
1,1,$1+$1,$2,$3*
1,1,$1+$1,$4,$5*
1,1,$1+$1,$6,$7*
1,1,$1+$1,$8,$9*
0 Add four rect primitives between the rounded corners*
20,1,$1+$1,$2,$3,$4,$5,0*
20,1,$1+$1,$4,$5,$6,$7,0*
20,1,$1+$1,$6,$7,$8,$9,0*
20,1,$1+$1,$8,$9,$2,$3,0*%
G04 Aperture macros list end*
%TA.AperFunction,ComponentPad*%
%ADD10RoundRect,0.250000X1.050000X-1.050000X1.050000X1.050000X-1.050000X1.050000X-1.050000X-1.050000X0*%
%TD*%
%TA.AperFunction,ComponentPad*%
%ADD11C,2.600000*%
%TD*%
%TA.AperFunction,ComponentPad*%
%ADD12RoundRect,0.250000X-1.050000X1.050000X-1.050000X-1.050000X1.050000X-1.050000X1.050000X1.050000X0*%
%TD*%
G04 APERTURE END LIST*
D10*
%TO.P,J2,1,Pin_1*%
%TO.N,Net-(J2-Pin_1)*%
X221140000Y-76060000D03*
D11*
%TO.P,J2,2,Pin_2*%
%TO.N,GND*%
X221140000Y-70980000D03*
%TD*%
D12*
%TO.P,J1,1,Pin_1*%
%TO.N,GND*%
X201907500Y-70775000D03*
D11*
%TO.P,J1,2,Pin_2*%
%TO.N,Net-(J1-Pin_2)*%
X201907500Y-75855000D03*
%TD*%
%TA.AperFunction,Conductor*%
%TO.N,GND*%
G36*
X226442539Y-66275185D02*
G01*
X226488294Y-66327989D01*
X226499500Y-66379500D01*
X226499500Y-80360500D01*
X226479815Y-80427539D01*
X226427011Y-80473294D01*
X226375500Y-80484500D01*
X196764500Y-80484500D01*
X196697461Y-80464815D01*
X196651706Y-80412011D01*
X196640500Y-80360500D01*
X196640500Y-75736902D01*
X200407000Y-75736902D01*
X200407000Y-75973097D01*
X200443946Y-76206368D01*
X200516933Y-76430996D01*
X200624157Y-76641433D01*
X200762983Y-76832510D01*
X200929990Y-76999517D01*
X201121067Y-77138343D01*
X201171944Y-77164266D01*
X201331503Y-77245566D01*
X201331505Y-77245566D01*
X201331508Y-77245568D01*
X201451912Y-77284689D01*
X201556131Y-77318553D01*
X201789403Y-77355500D01*
X201789408Y-77355500D01*
X202025597Y-77355500D01*
X202258868Y-77318553D01*
X202483492Y-77245568D01*
X202693933Y-77138343D01*
X202885010Y-76999517D01*
X203052017Y-76832510D01*
X203190843Y-76641433D01*
X203298068Y-76430992D01*
X203371053Y-76206368D01*
X203408000Y-75973097D01*
X203408000Y-75736902D01*
X203371053Y-75503631D01*
X203298066Y-75279003D01*
X203190842Y-75068566D01*
X203159713Y-75025721D01*
X203108862Y-74955730D01*
X219639500Y-74955730D01*
X219639500Y-77164269D01*
X219642353Y-77194699D01*
X219642353Y-77194701D01*
X219685692Y-77318553D01*
X219687207Y-77322882D01*
X219767850Y-77432150D01*
X219877118Y-77512793D01*
X219919845Y-77527744D01*
X220005299Y-77557646D01*
X220035730Y-77560500D01*
X220035734Y-77560500D01*
X222244270Y-77560500D01*
X222274699Y-77557646D01*
X222274701Y-77557646D01*
X222338790Y-77535219D01*
X222402882Y-77512793D01*
X222512150Y-77432150D01*
X222592793Y-77322882D01*
X222619847Y-77245566D01*
X222637646Y-77194701D01*
X222637646Y-77194699D01*
X222640500Y-77164269D01*
X222640500Y-74955730D01*
X222637646Y-74925300D01*
X222637646Y-74925298D01*
X222592793Y-74797119D01*
X222592792Y-74797117D01*
X222512150Y-74687850D01*
X222402882Y-74607207D01*
X222402880Y-74607206D01*
X222274700Y-74562353D01*
X222244270Y-74559500D01*
X222244266Y-74559500D01*
X220035734Y-74559500D01*
X220035730Y-74559500D01*
X220005300Y-74562353D01*
X220005298Y-74562353D01*
X219877119Y-74607206D01*
X219877117Y-74607207D01*
X219767850Y-74687850D01*
X219687207Y-74797117D01*
X219687206Y-74797119D01*
X219642353Y-74925298D01*
X219642353Y-74925300D01*
X219639500Y-74955730D01*
X203108862Y-74955730D01*
X203052017Y-74877490D01*
X202885010Y-74710483D01*
X202693933Y-74571657D01*
X202670074Y-74559500D01*
X202483496Y-74464433D01*
X202258868Y-74391446D01*
X202025597Y-74354500D01*
X202025592Y-74354500D01*
X201789408Y-74354500D01*
X201789403Y-74354500D01*
X201556131Y-74391446D01*
X201331503Y-74464433D01*
X201121066Y-74571657D01*
X201012050Y-74650862D01*
X200929990Y-74710483D01*
X200929988Y-74710485D01*
X200929987Y-74710485D01*
X200762985Y-74877487D01*
X200762985Y-74877488D01*
X200762983Y-74877490D01*
X200728247Y-74925300D01*
X200624157Y-75068566D01*
X200516933Y-75279003D01*
X200443946Y-75503631D01*
X200407000Y-75736902D01*
X196640500Y-75736902D01*
X196640500Y-69675013D01*
X200107500Y-69675013D01*
X200107500Y-70525000D01*
X201307499Y-70525000D01*
X201282479Y-70585402D01*
X201257500Y-70710981D01*
X201257500Y-70839019D01*
X201282479Y-70964598D01*
X201307499Y-71025000D01*
X200107501Y-71025000D01*
X200107501Y-71874986D01*
X200117994Y-71977697D01*
X200173141Y-72144119D01*
X200173143Y-72144124D01*
X200265184Y-72293345D01*
X200389154Y-72417315D01*
X200538375Y-72509356D01*
X200538380Y-72509358D01*
X200704802Y-72564505D01*
X200704809Y-72564506D01*
X200807519Y-72574999D01*
X201657499Y-72574999D01*
X201657500Y-72574998D01*
X201657500Y-71375001D01*
X201717902Y-71400021D01*
X201843481Y-71425000D01*
X201971519Y-71425000D01*
X202097098Y-71400021D01*
X202157500Y-71375001D01*
X202157500Y-72574999D01*
X203007472Y-72574999D01*
X203007486Y-72574998D01*
X203110197Y-72564505D01*
X203276619Y-72509358D01*
X203276624Y-72509356D01*
X203425845Y-72417315D01*
X203549813Y-72293347D01*
X203549817Y-72293342D01*
X203641856Y-72144124D01*
X203641858Y-72144119D01*
X203697005Y-71977697D01*
X203697006Y-71977690D01*
X203707499Y-71874986D01*
X203707500Y-71874973D01*
X203707500Y-71025000D01*
X202507501Y-71025000D01*
X202532521Y-70964598D01*
X202552926Y-70862014D01*
X219340000Y-70862014D01*
X219340000Y-71097985D01*
X219370799Y-71331914D01*
X219431870Y-71559837D01*
X219522160Y-71777819D01*
X219522165Y-71777828D01*
X219640144Y-71982171D01*
X219640145Y-71982172D01*
X219702721Y-72063723D01*
X220538958Y-71227487D01*
X220563978Y-71287890D01*
X220635112Y-71394351D01*
X220725649Y-71484888D01*
X220832110Y-71556022D01*
X220892511Y-71581041D01*
X220056275Y-72417277D01*
X220137827Y-72479854D01*
X220137828Y-72479855D01*
X220342171Y-72597834D01*
X220342180Y-72597839D01*
X220560163Y-72688129D01*
X220560161Y-72688129D01*
X220788085Y-72749200D01*
X221022014Y-72779999D01*
X221022029Y-72780000D01*
X221257971Y-72780000D01*
X221257985Y-72779999D01*
X221491914Y-72749200D01*
X221719837Y-72688129D01*
X221937819Y-72597839D01*
X221937828Y-72597834D01*
X222142181Y-72479850D01*
X222223723Y-72417279D01*
X222223723Y-72417276D01*
X221387487Y-71581041D01*
X221447890Y-71556022D01*
X221554351Y-71484888D01*
X221644888Y-71394351D01*
X221716022Y-71287890D01*
X221741041Y-71227488D01*
X222577276Y-72063723D01*
X222577279Y-72063723D01*
X222639850Y-71982181D01*
X222757834Y-71777828D01*
X222757839Y-71777819D01*
X222848129Y-71559837D01*
X222909200Y-71331914D01*
X222939999Y-71097985D01*
X222940000Y-71097971D01*
X222940000Y-70862028D01*
X222939999Y-70862014D01*
X222909200Y-70628085D01*
X222848129Y-70400162D01*
X222757839Y-70182180D01*
X222757834Y-70182171D01*
X222639855Y-69977828D01*
X222639854Y-69977827D01*
X222577277Y-69896275D01*
X221741041Y-70732511D01*
X221716022Y-70672110D01*
X221644888Y-70565649D01*
X221554351Y-70475112D01*
X221447890Y-70403978D01*
X221387488Y-70378958D01*
X222223723Y-69542721D01*
X222142172Y-69480145D01*
X222142171Y-69480144D01*
X221937828Y-69362165D01*
X221937819Y-69362160D01*
X221719836Y-69271870D01*
X221719838Y-69271870D01*
X221491914Y-69210799D01*
X221257985Y-69180000D01*
X221022014Y-69180000D01*
X220788085Y-69210799D01*
X220560162Y-69271870D01*
X220342180Y-69362160D01*
X220342171Y-69362165D01*
X220137828Y-69480144D01*
X220137818Y-69480150D01*
X220056275Y-69542720D01*
X220056275Y-69542721D01*
X220892512Y-70378958D01*
X220832110Y-70403978D01*
X220725649Y-70475112D01*
X220635112Y-70565649D01*
X220563978Y-70672110D01*
X220538958Y-70732512D01*
X219702721Y-69896275D01*
X219702720Y-69896275D01*
X219640150Y-69977818D01*
X219640144Y-69977828D01*
X219522165Y-70182171D01*
X219522160Y-70182180D01*
X219431870Y-70400162D01*
X219370799Y-70628085D01*
X219340000Y-70862014D01*
X202552926Y-70862014D01*
X202557500Y-70839019D01*
X202557500Y-70710981D01*
X202532521Y-70585402D01*
X202507501Y-70525000D01*
X203707499Y-70525000D01*
X203707499Y-69675028D01*
X203707498Y-69675013D01*
X203700170Y-69603276D01*
X203697005Y-69572302D01*
X203641858Y-69405880D01*
X203641856Y-69405875D01*
X203549815Y-69256654D01*
X203425845Y-69132684D01*
X203276624Y-69040643D01*
X203276619Y-69040641D01*
X203110197Y-68985494D01*
X203110190Y-68985493D01*
X203007486Y-68975000D01*
X202157500Y-68975000D01*
X202157500Y-70174998D01*
X202097098Y-70149979D01*
X201971519Y-70125000D01*
X201843481Y-70125000D01*
X201717902Y-70149979D01*
X201657500Y-70174998D01*
X201657500Y-68975000D01*
X200807528Y-68975000D01*
X200807512Y-68975001D01*
X200704802Y-68985494D01*
X200538380Y-69040641D01*
X200538375Y-69040643D01*
X200389154Y-69132684D01*
X200265184Y-69256654D01*
X200173143Y-69405875D01*
X200173141Y-69405880D01*
X200117994Y-69572302D01*
X200117993Y-69572309D01*
X200107500Y-69675013D01*
X196640500Y-69675013D01*
X196640500Y-66379500D01*
X196660185Y-66312461D01*
X196712989Y-66266706D01*
X196764500Y-66255500D01*
X226375500Y-66255500D01*
X226442539Y-66275185D01*
G37*
%TD.AperFunction*%
%TD*%
M02*
