%TF.GenerationSoftware,KiCad,Pcbnew,9.0.7+1*%
%TF.CreationDate,Date%
%TF.ProjectId,Swasthik_KiBot_Project,53776173-7468-4696-9b5f-4b69426f745f,+ (Unreleased)*%
%TF.SameCoordinates,Original*%
%TF.FileFunction,Legend,Top*%
%TF.FilePolarity,Positive*%
%FSLAX46Y46*%
G04 Gerber Fmt 4.6, Leading zero omitted, Abs format (unit mm)*
G04 Created by KiCad*
%MOMM*%
%LPD*%
G01*
G04 APERTURE LIST*
G04 Aperture macros list*
%AMRoundRect*
0 Rectangle with rounded corners*
0 $1 Rounding radius*
0 $2 $3 $4 $5 $6 $7 $8 $9 X,Y pos of 4 corners*
0 Add a 4 corners polygon primitive as box body*
4,1,4,$2,$3,$4,$5,$6,$7,$8,$9,$2,$3,0*
0 Add four circle primitives for the rounded corners*
1,1,$1+$1,$2,$3*
1,1,$1+$1,$4,$5*
1,1,$1+$1,$6,$7*
1,1,$1+$1,$8,$9*
0 Add four rect primitives between the rounded corners*
20,1,$1+$1,$2,$3,$4,$5,0*
20,1,$1+$1,$4,$5,$6,$7,0*
20,1,$1+$1,$6,$7,$8,$9,0*
20,1,$1+$1,$8,$9,$2,$3,0*%
G04 Aperture macros list end*
%ADD10C,0.150000*%
%ADD11C,0.120000*%
%ADD12RoundRect,0.259616X1.090384X-1.090384X1.090384X1.090384X-1.090384X1.090384X-1.090384X-1.090384X0*%
%ADD13C,2.700000*%
%ADD14RoundRect,0.259616X-1.090384X1.090384X-1.090384X-1.090384X1.090384X-1.090384X1.090384X1.090384X0*%
%ADD15RoundRect,0.250000X-0.275000X0.250000X-0.275000X-0.250000X0.275000X-0.250000X0.275000X0.250000X0*%
%ADD16RoundRect,0.400000X0.400000X-0.650000X0.400000X0.650000X-0.400000X0.650000X-0.400000X-0.650000X0*%
%ADD17RoundRect,0.525000X1.425000X-0.525000X1.425000X0.525000X-1.425000X0.525000X-1.425000X-0.525000X0*%
G04 APERTURE END LIST*
D10*
X214274819Y-73853333D02*
X214989104Y-73853333D01*
X214989104Y-73853333D02*
X215131961Y-73900952D01*
X215131961Y-73900952D02*
X215227200Y-73996190D01*
X215227200Y-73996190D02*
X215274819Y-74139047D01*
X215274819Y-74139047D02*
X215274819Y-74234285D01*
X214370057Y-73424761D02*
X214322438Y-73377142D01*
X214322438Y-73377142D02*
X214274819Y-73281904D01*
X214274819Y-73281904D02*
X214274819Y-73043809D01*
X214274819Y-73043809D02*
X214322438Y-72948571D01*
X214322438Y-72948571D02*
X214370057Y-72900952D01*
X214370057Y-72900952D02*
X214465295Y-72853333D01*
X214465295Y-72853333D02*
X214560533Y-72853333D01*
X214560533Y-72853333D02*
X214703390Y-72900952D01*
X214703390Y-72900952D02*
X215274819Y-73472380D01*
X215274819Y-73472380D02*
X215274819Y-72853333D01*
X201986666Y-66484819D02*
X201986666Y-67199104D01*
X201986666Y-67199104D02*
X201939047Y-67341961D01*
X201939047Y-67341961D02*
X201843809Y-67437200D01*
X201843809Y-67437200D02*
X201700952Y-67484819D01*
X201700952Y-67484819D02*
X201605714Y-67484819D01*
X202986666Y-67484819D02*
X202415238Y-67484819D01*
X202700952Y-67484819D02*
X202700952Y-66484819D01*
X202700952Y-66484819D02*
X202605714Y-66627676D01*
X202605714Y-66627676D02*
X202510476Y-66722914D01*
X202510476Y-66722914D02*
X202415238Y-66770533D01*
X209959580Y-78596666D02*
X210007200Y-78644285D01*
X210007200Y-78644285D02*
X210054819Y-78787142D01*
X210054819Y-78787142D02*
X210054819Y-78882380D01*
X210054819Y-78882380D02*
X210007200Y-79025237D01*
X210007200Y-79025237D02*
X209911961Y-79120475D01*
X209911961Y-79120475D02*
X209816723Y-79168094D01*
X209816723Y-79168094D02*
X209626247Y-79215713D01*
X209626247Y-79215713D02*
X209483390Y-79215713D01*
X209483390Y-79215713D02*
X209292914Y-79168094D01*
X209292914Y-79168094D02*
X209197676Y-79120475D01*
X209197676Y-79120475D02*
X209102438Y-79025237D01*
X209102438Y-79025237D02*
X209054819Y-78882380D01*
X209054819Y-78882380D02*
X209054819Y-78787142D01*
X209054819Y-78787142D02*
X209102438Y-78644285D01*
X209102438Y-78644285D02*
X209150057Y-78596666D01*
X209150057Y-78215713D02*
X209102438Y-78168094D01*
X209102438Y-78168094D02*
X209054819Y-78072856D01*
X209054819Y-78072856D02*
X209054819Y-77834761D01*
X209054819Y-77834761D02*
X209102438Y-77739523D01*
X209102438Y-77739523D02*
X209150057Y-77691904D01*
X209150057Y-77691904D02*
X209245295Y-77644285D01*
X209245295Y-77644285D02*
X209340533Y-77644285D01*
X209340533Y-77644285D02*
X209483390Y-77691904D01*
X209483390Y-77691904D02*
X210054819Y-78263332D01*
X210054819Y-78263332D02*
X210054819Y-77644285D01*
X211068095Y-66764819D02*
X211068095Y-67574342D01*
X211068095Y-67574342D02*
X211115714Y-67669580D01*
X211115714Y-67669580D02*
X211163333Y-67717200D01*
X211163333Y-67717200D02*
X211258571Y-67764819D01*
X211258571Y-67764819D02*
X211449047Y-67764819D01*
X211449047Y-67764819D02*
X211544285Y-67717200D01*
X211544285Y-67717200D02*
X211591904Y-67669580D01*
X211591904Y-67669580D02*
X211639523Y-67574342D01*
X211639523Y-67574342D02*
X211639523Y-66764819D01*
X212639523Y-67764819D02*
X212068095Y-67764819D01*
X212353809Y-67764819D02*
X212353809Y-66764819D01*
X212353809Y-66764819D02*
X212258571Y-66907676D01*
X212258571Y-66907676D02*
X212163333Y-67002914D01*
X212163333Y-67002914D02*
X212068095Y-67050533D01*
X214989580Y-78551666D02*
X215037200Y-78599285D01*
X215037200Y-78599285D02*
X215084819Y-78742142D01*
X215084819Y-78742142D02*
X215084819Y-78837380D01*
X215084819Y-78837380D02*
X215037200Y-78980237D01*
X215037200Y-78980237D02*
X214941961Y-79075475D01*
X214941961Y-79075475D02*
X214846723Y-79123094D01*
X214846723Y-79123094D02*
X214656247Y-79170713D01*
X214656247Y-79170713D02*
X214513390Y-79170713D01*
X214513390Y-79170713D02*
X214322914Y-79123094D01*
X214322914Y-79123094D02*
X214227676Y-79075475D01*
X214227676Y-79075475D02*
X214132438Y-78980237D01*
X214132438Y-78980237D02*
X214084819Y-78837380D01*
X214084819Y-78837380D02*
X214084819Y-78742142D01*
X214084819Y-78742142D02*
X214132438Y-78599285D01*
X214132438Y-78599285D02*
X214180057Y-78551666D01*
X215084819Y-77599285D02*
X215084819Y-78170713D01*
X215084819Y-77884999D02*
X214084819Y-77884999D01*
X214084819Y-77884999D02*
X214227676Y-77980237D01*
X214227676Y-77980237D02*
X214322914Y-78075475D01*
X214322914Y-78075475D02*
X214370533Y-78170713D01*
D11*
%TO.C,J2*%
X215820000Y-68320000D02*
X225860000Y-68320000D01*
X215820000Y-78720000D02*
X215820000Y-68320000D01*
X218840000Y-78720000D02*
X218840000Y-68320000D01*
X223740000Y-78720000D02*
X223740000Y-68320000D01*
X225240000Y-78720000D02*
X225240000Y-68320000D01*
X225860000Y-68320000D02*
X225860000Y-75760000D01*
X225860000Y-76360000D02*
X225860000Y-78720000D01*
X225860000Y-78720000D02*
X215820000Y-78720000D01*
X226470000Y-76500000D02*
X225860000Y-76060000D01*
X226470000Y-75620000D01*
X226470000Y-76500000D01*
G36*
X226470000Y-76500000D02*
G01*
X225860000Y-76060000D01*
X226470000Y-75620000D01*
X226470000Y-76500000D01*
G37*
%TO.C,J1*%
X197187500Y-68115000D02*
X207227500Y-68115000D01*
X197187500Y-70475000D02*
X197187500Y-68115000D01*
X197187500Y-78515000D02*
X197187500Y-71075000D01*
X197807500Y-68115000D02*
X197807500Y-78515000D01*
X199307500Y-68115000D02*
X199307500Y-78515000D01*
X204207500Y-68115000D02*
X204207500Y-78515000D01*
X207227500Y-68115000D02*
X207227500Y-78515000D01*
X207227500Y-78515000D02*
X197187500Y-78515000D01*
X197187500Y-70775000D02*
X196577500Y-71215000D01*
X196577500Y-70335000D01*
X197187500Y-70775000D01*
G36*
X197187500Y-70775000D02*
G01*
X196577500Y-71215000D01*
X196577500Y-70335000D01*
X197187500Y-70775000D01*
G37*
%TO.C,C2*%
X210510000Y-78394420D02*
X210510000Y-78675580D01*
X211530000Y-78394420D02*
X211530000Y-78675580D01*
%TO.C,U1*%
X208140000Y-70510000D02*
X209400000Y-70510000D01*
X208140000Y-74270000D02*
X208140000Y-70510000D01*
X214960000Y-70510000D02*
X213700000Y-70510000D01*
X214960000Y-74270000D02*
X214960000Y-70510000D01*
X208240000Y-75550000D02*
X207910000Y-75790000D01*
X207910000Y-75310000D01*
X208240000Y-75550000D01*
G36*
X208240000Y-75550000D02*
G01*
X207910000Y-75790000D01*
X207910000Y-75310000D01*
X208240000Y-75550000D01*
G37*
%TO.C,C1*%
X212740000Y-78364420D02*
X212740000Y-78645580D01*
X213760000Y-78364420D02*
X213760000Y-78645580D01*
%TD*%
%LPC*%
D12*
%TO.C,J2*%
X221140000Y-76060000D03*
D13*
X221140000Y-70980000D03*
%TD*%
D14*
%TO.C,J1*%
X201907500Y-70775000D03*
D13*
X201907500Y-75855000D03*
%TD*%
D15*
%TO.C,C2*%
X211020000Y-77760000D03*
X211020000Y-79310000D03*
%TD*%
D16*
%TO.C,U1*%
X209250000Y-75570000D03*
X211550000Y-75570000D03*
D17*
X211550000Y-69270000D03*
D16*
X213850000Y-75570000D03*
%TD*%
D15*
%TO.C,C1*%
X213250000Y-77730000D03*
X213250000Y-79280000D03*
%TD*%
%LPD*%
M02*
